HIERARCHY
ROOT Hips
{
    OFFSET 14.164297103881836 95.16803359985352 -18.44227409362793
    CHANNELS 6 Xposition Yposition Zposition Zrotation Xrotation Yrotation
    JOINT RightUpLeg
    {
        OFFSET -14.164297103881836 0.0 0.0
        CHANNELS 3 Zrotation Xrotation Yrotation
        JOINT RightLeg
        {
            OFFSET 0.0 -49.06235122680664 0.0
            CHANNELS 3 Zrotation Xrotation Yrotation
            JOINT RightFoot
            {
                OFFSET 0.0 -46.105682373046875 0.0
                CHANNELS 3 Zrotation Xrotation Yrotation
                End Site
                {
                    OFFSET 0.0 0.0 18.44227409362793
                }
            }
        }
    }
    JOINT LeftUpLeg
    {
        OFFSET 14.164297103881836 0.0 0.0
        CHANNELS 3 Zrotation Xrotation Yrotation
        JOINT LeftLeg
        {
            OFFSET 0.0 -49.06235122680664 0.0
            CHANNELS 3 Zrotation Xrotation Yrotation
            JOINT LeftFoot
            {
                OFFSET 0.0 -46.105682373046875 0.0
                CHANNELS 3 Zrotation Xrotation Yrotation
                End Site
                {
                    OFFSET 0.0 0.0 18.44227409362793
                }
            }
        }
    }
    JOINT Spine
    {
        OFFSET 0.0 25.679351806640625 0.0
        CHANNELS 3 Zrotation Xrotation Yrotation
        JOINT Spine3
        {
            OFFSET 0.0 26.143936157226562 0.0
            CHANNELS 3 Zrotation Xrotation Yrotation
            JOINT Neck
            {
                OFFSET 0.0 11.135071754455566 0.0
                CHANNELS 3 Zrotation Xrotation Yrotation
                End Site
                {
                    OFFSET 0.0 4.454028606414795 0.0
                }
            }
            JOINT LeftArm
            {
                OFFSET 15.196566581726074 0.0 0.0
                CHANNELS 3 Zrotation Xrotation Yrotation
                JOINT LeftForeArm
                {
                    OFFSET 29.750762939453125 0.0 0.0
                    CHANNELS 3 Zrotation Xrotation Yrotation
                    JOINT LeftHand
                    {
                        OFFSET 24.974950790405273 0.0 0.0
                        CHANNELS 3 Zrotation Xrotation Yrotation
                        End Site
                        {
                            OFFSET 9.989980697631836 0.0 0.0
                        }
                    }
                }
            }
            JOINT RightArm
            {
                OFFSET -15.196566581726074 0.0 0.0
                CHANNELS 3 Zrotation Xrotation Yrotation
                JOINT RightForeArm
                {
                    OFFSET -29.750762939453125 0.0 0.0
                    CHANNELS 3 Zrotation Xrotation Yrotation
                    JOINT RightHand
                    {
                        OFFSET -24.974950790405273 0.0 0.0
                        CHANNELS 3 Zrotation Xrotation Yrotation
                        End Site
                        {
                            OFFSET -9.989980697631836 0.0 0.0
                        }
                    }
                }
            }
        }
    }
}
MOTION
Frames: 9
Frame Time: 0.03333333333333333
4.224989243084565e-05 95.28335571289062 -0.0008991910144686699 0.7786026178649014 -10.392983267004434 -12.860891548193601 5.654754644244277 19.621924045688345 -3.051714604566209 -5.383819661588007 6.947838128300268 -0.3759430939892979 0.0 0.0 4.969616689786744e-16 7.107598202857163 10.175693695620446 -1.8735128304627824 -1.869125575758927 9.990001410652493 -1.478408543701395 -5.517382872562698e-33 -1.5902773407317582e-15 -3.9756933518293955e-16 -5.866120228183867 14.741364863438886 0.6339619491403046 -4.6423473136794544e-08 2.0470455281481747e-07 4.710768141169371 3.319297522326986 7.0334611978288315 -169.8836366176745 148.93984478877346 28.975011540018272 175.31861610761 4.822831362656537e-06 -1.0013504984863393e-06 40.69398187999188 -8.827812596100317e-32 3.1805546814635164e-15 3.1805546814635164e-15 -154.6364486454196 22.977078240672974 -177.33528494897155 2.4324841768905562e-06 -6.179067142145174e-07 -42.96720201704706 -1.5902773407317584e-15 0.0 0.0
-1.7763635696610436e-05 95.28326416015625 -0.0008852664614096284 0.6796189709552497 -10.240617052061749 -13.388801172561225 5.540277886678593 19.614677611000893 -2.959047325299044 -5.170149603227748 6.441410496621938 -0.3444730968518912 -1.1034765745125397e-32 -3.1805546814635168e-15 -3.975693351829396e-16 7.334615087611888 10.222129250633518 -1.8954948142193135 -1.6188402648592994 9.979597584091373 -1.5338206655248323 -6.896728590703373e-33 -1.5902773407317588e-15 -4.969616689786746e-16 -5.120179441414361 14.5500188284821 0.47672179331017067 8.592878243323777e-09 2.914315643446124e-07 4.454536175733153 2.325776427019989 7.220399514360947 -169.97002869289017 149.57235390323 28.37255449459431 174.9863775876615 3.004600389027625e-06 -6.477908309714599e-07 40.33150061412391 3.1805546814635168e-15 -7.95138670365879e-16 6.3611093629270335e-15 -154.22781577766787 26.841590442358928 -178.31164608113988 6.138079258693006e-07 2.705938686507391e-06 -45.05374942873447 -8.827812596100317e-32 -3.1805546814635168e-15 -3.1805546814635168e-15
-3.887498678523116e-05 95.28328704833984 -0.000906369648873806 0.6623112684428644 -10.144882518827167 -14.002686437024613 5.344581642035935 19.743321453944176 -2.9252019796873756 -4.924500082517518 6.09027927203648 -0.335989432749552 -7.951386703658791e-16 3.4483642953516864e-33 -4.969616689786744e-16 7.200587138535394 10.149018192989411 -1.865651689667036 -1.2444244728419123 10.178457272365836 -1.6161695417069477 1.5902773407317584e-15 1.5902773407317584e-15 -2.882377680076312e-15 -4.455031393587777 14.399256747910803 0.29549067311216315 -3.714421315621995e-08 8.768427169189501e-08 4.249538436982147 1.7215042429014518 6.995372591751423 -168.12812627103744 149.91159646777808 27.792293645488126 173.99083495997695 -2.0055460308525188e-06 -2.350748520959648e-07 39.94954941752994 -3.1805546814635164e-15 0.0 0.0 -153.80686758385008 30.710942977269852 -179.49003587439014 -2.40610334876604e-06 -2.790917193357449e-06 -46.54695458693153 -1.5902773407317584e-15 0.0 0.0
3.4343429433647543e-06 95.28333282470703 -0.0009097747970372438 0.49562308078258627 -9.957048623673918 -14.321741630402954 5.6507273569303145 19.685106543337707 -2.9546440660626674 -4.72905000950234 6.067997957928288 -0.36676183801731416 -7.951386703658794e-16 3.1805546814635168e-15 3.578124016646457e-15 7.602891453650409 9.730937138424181 -1.8256530072692925 -1.354161548236413 11.004531369295615 -1.766611907997862 3.379397009444653e-32 1.3914926731402886e-15 -2.782985346280577e-15 -3.736138508569681 14.040660264609272 0.16142080881451348 -5.593415304219839e-08 4.799017177831215e-08 3.888097759549795 1.402420873660022 7.134647917582472 -168.73771160390393 150.49569399225967 28.684661663764313 173.20419840024465 -8.455601166206689e-07 5.456104495811046e-06 40.52515848132248 -3.1805546814635168e-15 0.0 0.0 -153.0812139374664 34.48206106643854 179.5618709712891 -1.81119858864344e-06 -2.7337156408246016e-06 -47.749500343622955 5.517382872562698e-33 1.987846675914698e-16 -3.1805546814635168e-15
4.02878868044354e-06 95.28337860107422 -0.0009113495470955968 0.3060371782070298 -9.823939826040698 -15.003953968068389 5.580095251251086 19.347082143142558 -2.8088442676325895 -4.293244421864454 5.788375301655525 -0.36836148342873565 -7.951386703658791e-16 -1.9878466759146975e-16 -2.584200678689107e-15 7.660740589498774 9.787314510432001 -1.808246212215595 -1.2728948202845851 11.542630731572562 -1.8360752872225017 1.5902773407317582e-15 -1.9878466759146977e-16 3.9756933518293955e-16 -3.062120636051588 14.071957228339956 0.05055063834037407 -1.0392809720105904e-07 5.819309044065048e-07 3.6493803993889706 1.385963307935756 7.409336524917818 -170.4823015124009 150.95928589129463 28.78563792216731 172.29654882308927 -2.4943171622932028e-06 -1.5236166494799524e-06 40.87287973638057 0.0 7.951386703658791e-16 0.0 -153.40301391202425 36.33289830991129 179.31521705337664 -2.6348542929302435e-06 -1.8095744883286727e-06 -48.55082191125328 -1.5902773407317584e-15 0.0 0.0
3.8989535823930055e-05 95.28336334228516 -0.000885358196683228 0.004239972179657225 -9.861779022996853 -15.420561108963199 5.8985357563453595 19.361447953735926 -2.859179664845329 -4.507468725601047 5.932575296616538 -0.3691436317690056 7.951386703658794e-16 9.939233379573492e-17 1.292100339344554e-15 7.950553447432725 9.87334936755444 -1.8440469073276038 -1.2755469362126408 11.360686956189014 -1.829104683711966 0.0 0.0 9.939233379573488e-16 -2.464546611031359 14.177722178562892 -0.05236552012685379 -5.641963636428663e-08 -3.3620658925848904e-08 3.6110621096231688 1.7787704164755482 7.979137901391467 -171.22104484413737 151.37774576635275 28.03055233343805 172.28873322638353 -4.155522713029541e-06 5.472813773814645e-07 40.36090577964355 1.5902773407317588e-15 7.951386703658794e-16 -1.1034765745125397e-32 -153.58612304480815 37.11415333387465 179.2202475776227 -1.9083504833817284e-06 -1.7871450538720868e-06 -48.725409212239065 0.0 0.0 -3.1805546814635168e-15
2.8587373890331946e-05 95.2833023071289 -0.0008720165933482349 0.09911048074173562 -9.841665154201557 -15.380603812244148 5.94782617886121 19.18101957080445 -2.850630672865444 -4.706953530938614 6.051398466758978 -0.36137729128804863 7.951386703658792e-16 4.138037154422024e-33 5.963540027744094e-16 7.982010777241289 9.52622619325714 -1.7851713761219965 -1.4544734815739382 11.765227559637271 -1.8648179606517161 -1.5902773407317582e-15 -1.987846675914697e-16 -4.174478019420865e-15 -2.320850309238963 14.185263514605543 -0.08782709972058875 5.974504916890839e-08 -1.9988613723297778e-07 3.4943298886408507 1.7782902986662452 8.696639956606562 -171.3969363971268 152.02733325898083 26.95447499607944 172.3799489046028 -1.8387723123395065e-06 -3.9576024337238943e-07 39.34292158105248 0.0 0.0 6.3611093629270335e-15 -154.11558039294206 36.934772698437975 179.67147275818112 -1.1410240887269445e-06 5.617250126019515e-07 -48.25130599340573 -1.5902773407317584e-15 4.4139062980501586e-32 -3.1805546814635168e-15
-6.320942702586763e-06 95.28327178955078 -0.0008794244495220482 0.3076028361389419 -9.760442393628935 -15.61257832189187 5.6511456821561135 18.972254519054673 -2.7280689795659505 -4.694604615146228 6.145536339371104 -0.34100676146034054 -1.0526132011561022e-31 -3.2799470152592518e-15 -3.677516350442191e-15 7.774332878530966 9.31963941479046 -1.7146816903054618 -1.0535562593497438 11.83159430210342 -1.921119993934284 2.069018577211012e-33 1.987846675914698e-16 -1.1927080055488188e-15 -2.2380569732745075 14.060338716032897 -0.11120220020352277 -1.5179380647592441e-07 4.9832106508684664e-08 3.269487346076275 1.830735664982504 8.846994921649191 -171.71744234207256 152.37538125865726 27.487413886870097 172.32131118574046 -2.28030703192611e-06 4.321875243099388e-06 39.438420711058654 -3.1805546814635164e-15 0.0 0.0 -154.87403412291164 35.76798423456854 179.6806925948775 8.674044323767271e-07 -3.8346186022818315e-07 -47.438908961443204 3.1805546814635168e-15 -6.3611093629270335e-15 6.3611093629270335e-15
-2.7635156584437937e-05 95.28330993652344 -0.000876354519277811 0.5691166475201663 -9.69069708558327 -15.820210673469909 5.3593369011539576 18.839908413504755 -2.6675088299620686 -4.724404410691642 6.144854075522119 -0.3253683185227796 -7.951386703658791e-16 1.9878466759146975e-16 2.484808344893372e-15 7.413205285104499 8.93279751991577 -1.612211882038823 -0.9911492411197629 12.30201399657995 -1.9697140110132572 -1.5902773407317584e-15 -1.987846675914698e-16 1.3914926731402886e-15 -2.061364747667924 13.91350129853309 -0.1917845247346137 2.1202818077467269e-07 4.768697463844285e-07 3.3549274826386295 1.3894023856362012 8.911709795086336 -172.4328406428254 152.8072978979923 27.670715257277518 171.97249561919182 -8.869783759420994e-07 6.006327798218379e-06 38.529614841654634 1.5902773407317582e-15 -7.951386703658791e-16 1.1034765745125397e-32 -155.65372194803047 35.083390987986455 179.6607394991626 2.6061697728322033e-06 2.4649826324874626e-06 -46.66805765618401 -1.5902773407317588e-15 0.0 0.0
